<svg width="22" height="22" viewBox="0 0 22 22" fill="none" xmlns="http://www.w3.org/2000/svg">
<path d="M11.0407 21.0408C16.586 21.0408 21.0814 16.5455 21.0814 11.0001C21.0814 5.45484 16.586 0.959473 11.0407 0.959473C5.49536 0.959473 1 5.45484 1 11.0001C1 16.5455 5.49536 21.0408 11.0407 21.0408Z" stroke="#04B6D5" stroke-width="1.43438" stroke-miterlimit="10"/>
<path d="M14.0896 5.37727L5.41828 14.0486C4.92581 13.1449 4.65137 12.1045 4.65137 11C4.65137 7.46764 7.50866 4.61035 11.0411 4.61035C12.1455 4.61035 13.1859 4.8848 14.0896 5.37727Z" stroke="#04B6D5" stroke-width="1.43438" stroke-miterlimit="10"/>
<path d="M17.4304 11.0002C17.4304 14.5326 14.5731 17.3899 11.0407 17.3899C9.93625 17.3899 8.89585 17.1164 7.99219 16.623L16.6635 7.95166C17.156 8.85532 17.4304 9.89573 17.4304 11.0002Z" stroke="#04B6D5" stroke-width="1.43438" stroke-miterlimit="10"/>
</svg>
