<svg width="32" height="32" viewBox="0 0 32 32" fill="none" xmlns="http://www.w3.org/2000/svg">
<g clip-path="url(#clip0_14_2696)">
<path d="M16.0754 0.699707C7.63895 0.699707 0.775391 7.56327 0.775391 15.9997C0.775391 24.4362 7.63895 31.2998 16.0754 31.2998C24.5119 31.2998 31.3754 24.4362 31.3754 15.9997C31.3754 7.56327 24.5119 0.699707 16.0754 0.699707ZM29.0615 15.9997C29.0615 19.1642 27.9231 22.0675 26.0351 24.323L23.4843 21.7722V21.1588C24.2728 20.9671 24.8591 20.2582 24.8598 19.4105L24.8604 16.714C24.8606 16.4337 24.7952 16.157 24.6697 15.9063L23.9707 14.5111H25.3549C25.5053 14.5111 25.6273 14.3891 25.6273 14.2387V12.9854C25.6273 12.835 25.5053 12.713 25.3549 12.713H23.8569C23.7429 12.713 23.641 12.7841 23.6015 12.8909L23.4137 13.3986L22.0771 10.2664C21.7936 9.6027 21.1415 9.17206 20.4199 9.17206H11.7315C11.4848 9.17206 11.2467 9.22347 11.0282 9.31632L7.7519 6.04041C10.0074 4.15226 12.9108 3.0138 16.0754 3.0138C23.2359 3.0138 29.0615 8.83926 29.0615 15.9997ZM9.8955 18.3447C9.76051 18.3447 9.65107 18.2354 9.65107 18.1005V16.982C9.65107 16.8471 9.76051 16.7378 9.8955 16.7378H12.4862C12.6212 16.7378 12.7306 16.8471 12.7306 16.982V18.1005C12.7306 18.2354 12.6212 18.3447 12.4862 18.3447H9.8955ZM10.711 13.7885L11.1648 12.7256L12.2277 13.7885H10.711ZM22.4997 18.1005C22.4997 18.2354 22.3903 18.3447 22.2554 18.3447H20.0567L19.4204 17.7084V16.9821C19.4204 16.8472 19.5298 16.7379 19.6646 16.7379H22.2555C22.3904 16.7379 22.4998 16.8472 22.4998 16.9821V18.1005H22.4997ZM15.5003 13.7885L12.5043 10.7925H20.1607L21.4397 13.7885H15.5003ZM3.08948 15.9997C3.08948 12.8353 4.22785 9.93198 6.1157 7.67661L9.66472 11.2255L8.73733 13.3987L8.54957 12.8909C8.51007 12.784 8.40814 12.713 8.29412 12.713H6.79603C6.64563 12.713 6.52361 12.835 6.52361 12.9854V14.2387C6.52361 14.3891 6.64563 14.5111 6.79603 14.5111H8.18029L7.48133 15.9063C7.3558 16.157 7.29045 16.4337 7.29055 16.714L7.29123 19.4105C7.29182 20.2581 7.87812 20.9671 8.66671 21.1588V22.2827C8.66671 22.5837 8.91056 22.8274 9.21127 22.8274H10.9546C11.2554 22.8274 11.4994 22.5837 11.4994 22.2827V21.2117H19.6512L20.6514 22.2119V22.2827C20.6514 22.5837 20.8955 22.8274 21.1965 22.8274H21.2671L24.3989 25.9592C22.1434 27.8473 19.2401 28.9858 16.0754 28.9858C8.91495 28.9858 3.08948 23.1602 3.08948 15.9997Z" fill="#6DE7FC"/>
</g>
<defs>
<clipPath id="clip0_14_2696">
<rect width="30.6002" height="30.6002" fill="white" transform="translate(0.775391 0.699707)"/>
</clipPath>
</defs>
</svg>
