<svg width="75" height="60" viewBox="0 0 75 60" fill="none" xmlns="http://www.w3.org/2000/svg">
<path d="M36.177 22.3282H31.3319C31.3319 18.6944 28.4248 15.7874 24.791 15.7874C21.1572 15.7874 18.2501 18.6944 18.2501 22.3282H13.405C13.405 16.0296 18.4923 10.9422 24.791 10.9422C31.0897 10.9422 36.177 16.0296 36.177 22.3282Z" fill="#43E0FB"/>
<path d="M72.9193 24.1856L70.7391 21.6822L65.6517 1.97872C65.4095 0.928914 64.4404 0.202148 63.3099 0.202148H12.5974C11.4669 0.202148 10.4978 0.928914 10.2556 1.97872L5.24888 21.3592L2.58402 23.9432C0.888286 25.6391 0 27.7387 0 30.0805V57.3749C0 58.7477 1.04981 59.7974 2.4225 59.7974H16.1504C17.5232 59.7974 18.5729 58.7476 18.5729 57.3749V51.1569H56.365V57.3749C56.365 58.7477 57.4148 59.7974 58.7875 59.7974H72.5153C73.8882 59.7974 74.9378 58.7476 74.9378 57.3749V29.7575C74.9383 27.6579 74.2115 25.8006 72.9193 24.1856ZM14.4546 5.0473H61.4525L65.3287 19.9058H10.6593L14.4546 5.0473ZM13.7279 54.9522H4.84515V51.1569H13.7279V54.9522ZM61.2103 54.9522V51.1569H70.093V54.9522H61.2103ZM70.0931 46.3117H4.84515V30.0805C4.84515 29.0307 5.24888 28.1424 5.97564 27.4157L8.72118 24.7508H66.9437L69.2048 27.4157C69.7701 28.0617 70.0931 28.8692 70.0931 29.7575V46.3117Z" fill="#EBFCFF"/>
<path d="M21.0763 44.2928H9.52879C8.15594 44.2928 7.10629 43.243 7.10629 41.8703V33.9566C7.10629 32.5837 8.15609 31.5341 9.52879 31.5341H21.0763C22.4492 31.5341 23.4988 32.5839 23.4988 33.9566V41.8703C23.499 43.243 22.4492 44.2928 21.0763 44.2928ZM11.9513 39.4476H18.6537V36.3791H11.9513V39.4476Z" fill="#43E0FB"/>
<path d="M65.4095 44.2928H53.8619C52.4891 44.2928 51.4394 43.243 51.4394 41.8703V33.9566C51.4394 32.5838 52.4892 31.5341 53.8619 31.5341H65.4095C66.7823 31.5341 67.832 32.5839 67.832 33.9566V41.8703C67.832 43.243 66.7822 44.2928 65.4095 44.2928ZM56.2844 39.4477H62.9868V36.3791H56.2844V39.4477Z" fill="#43E0FB"/>
</svg>
