<svg width="32" height="31" viewBox="0 0 32 31" fill="none" xmlns="http://www.w3.org/2000/svg">
<g clip-path="url(#clip0_14_2699)">
<path d="M23.2648 9.68154H23.0054C22.8355 9.68154 22.6973 9.54333 22.6973 9.37361H20.9043C20.9043 10.2615 21.4583 11.0221 22.2385 11.3291V12.0327H24.0315V11.3291C24.8117 11.0218 25.3657 10.2615 25.3657 9.37361C25.3657 8.21494 24.4232 7.27246 23.2648 7.27246H23.0054C22.8355 7.27246 22.6973 7.13425 22.6973 6.96453C22.6973 6.7948 22.8355 6.65636 23.0054 6.65636H23.2648C23.4345 6.65636 23.5728 6.7948 23.5728 6.96453H25.3657C25.3657 6.07644 24.8117 5.31606 24.0315 5.00906V4.30518H22.2385V5.00906C21.4583 5.31606 20.9043 6.07644 20.9043 6.96453C20.9043 8.12296 21.847 9.06544 23.0054 9.06544H23.2648C23.4345 9.06544 23.5728 9.20365 23.5728 9.37337C23.5728 9.54333 23.4345 9.68154 23.2648 9.68154Z" fill="#04B6D5"/>
<path d="M31.3755 21.8161C31.3755 19.2307 29.2723 17.1277 26.6872 17.1277H24.9103L24.0127 15.278C27.5251 14.8445 30.2533 11.8422 30.2533 8.21417C30.2533 4.28923 27.06 1.09619 23.1351 1.09619C19.2104 1.09619 16.0171 4.28923 16.0171 8.21417C16.0171 9.22086 16.2277 10.179 16.6061 11.0479H5.78546L3.93225 17.1886C2.1395 17.5122 0.775391 19.0841 0.775391 20.9686V26.8091H3.62268C4.02983 28.557 5.59939 29.8632 7.46941 29.8632C9.33919 29.8632 10.9087 28.557 11.3159 26.8091H20.5021C20.9095 28.557 22.4788 29.8632 24.3488 29.8632C26.2189 29.8632 27.7884 28.557 28.1956 26.8091H31.3755V21.8161ZM23.1351 2.88917C26.0713 2.88917 28.4601 5.27794 28.4601 8.21417C28.4601 11.1504 26.0713 13.5392 23.1351 13.5392C20.1988 13.5392 17.8101 11.1504 17.8101 8.21417C17.8101 5.27794 20.1988 2.88917 23.1351 2.88917ZM22.0019 15.2416L22.9173 17.1275H14.6747V12.8409H17.7305C18.8037 14.0927 20.3032 14.9687 22.0019 15.2416ZM12.8817 12.8409V17.1277H5.82351L7.11735 12.8409H12.8817ZM7.46941 28.0702C6.27969 28.0702 5.31176 27.1023 5.31176 25.9126C5.31176 24.7229 6.27946 23.7549 7.46941 23.7549C8.65912 23.7549 9.62682 24.7229 9.62682 25.9126C9.62682 27.1023 8.65889 28.0702 7.46941 28.0702ZM7.46941 21.9622C5.59939 21.9622 4.02983 23.2684 3.62268 25.0161H2.56837V22.615H3.76369V20.822H2.5742C2.64985 19.7609 3.53653 18.9207 4.61652 18.9207H12.8817V25.0161H11.3159C10.9087 23.2684 9.33919 21.9622 7.46941 21.9622ZM24.3488 28.0702C23.1591 28.0702 22.1912 27.1023 22.1912 25.9126C22.1912 24.7229 23.1591 23.7549 24.3488 23.7549C25.5386 23.7549 26.5065 24.7229 26.5065 25.9126C26.5065 27.1023 25.5386 28.0702 24.3488 28.0702ZM28.1956 25.0161C27.7884 23.2684 26.2189 21.962 24.3488 21.962C22.4788 21.962 20.9095 23.2684 20.5021 25.0161H14.6747V18.9204H26.6872C27.9348 18.9204 29.0005 19.7135 29.4068 20.822H28.2079V22.615H29.5826V25.0161H28.1956Z" fill="#04B6D5"/>
</g>
<defs>
<clipPath id="clip0_14_2699">
<rect width="30.6002" height="30.6002" fill="white" transform="translate(0.775391 0.199707)"/>
</clipPath>
</defs>
</svg>
