<svg width="60" height="61" viewBox="0 0 60 61" fill="none" xmlns="http://www.w3.org/2000/svg">
<path d="M8.50025 4.83743C8.50025 4.42813 8.83342 4.09497 9.24272 4.09497H20.5815V0H9.24272C6.57557 0 4.40528 2.17028 4.40528 4.83743V13.0274H8.50025V4.83743Z" fill="#43E0FB"/>
<path d="M51.0929 4.83743V13.0274H55.1879V4.83743C55.1879 2.17028 53.0176 0 50.3504 0H39.0117V4.09497H50.3504C50.7597 4.09497 51.0929 4.42813 51.0929 4.83743Z" fill="#43E0FB"/>
<path d="M8.50025 56.1626V47.9726H4.40528V56.1626C4.40528 58.8297 6.57557 61 9.24272 61H20.5815V56.905H9.24272C8.83342 56.905 8.50025 56.5719 8.50025 56.1626Z" fill="#43E0FB"/>
<path d="M51.0929 56.1626C51.0929 56.5719 50.7597 56.905 50.3504 56.905H39.0117V61H50.3504C53.0176 61 55.1879 58.8297 55.1879 56.1626V47.9726H51.0929V56.1626Z" fill="#43E0FB"/>
<path fill-rule="evenodd" clip-rule="evenodd" d="M29.5253 4.10068C30.8274 4.10068 31.8821 5.15536 31.8821 6.45753V8.81437H38.0446C40.0092 8.81437 41.7683 10.0328 42.4594 11.8737L46.6248 22.984C50.2495 23.2886 53.0975 26.327 53.0975 30.0317V39.461C53.0975 42.0653 50.9863 44.1746 48.3838 44.1746H48.3001C47.727 48.1725 44.2889 51.2471 40.133 51.2471C35.9771 51.2471 32.5389 48.1725 31.9659 44.1746H27.0847C26.5116 48.1725 23.0735 51.2471 18.9176 51.2471C14.7617 51.2471 11.3216 48.1725 10.7505 44.1746H10.6667C8.06239 44.1746 5.95303 42.0634 5.95303 39.461V30.0317C5.95303 26.5364 8.48882 23.6332 11.8204 23.062L14.4894 12.3877C15.0149 10.2898 16.8996 8.81627 19.0642 8.81627H27.1703V6.45943C27.1703 5.15726 28.225 4.10258 29.5272 4.10258L29.5253 4.10068ZM16.7054 22.9592H27.1684V13.53H19.0623L16.7054 22.9592ZM31.8821 22.9592H41.5798L38.0446 13.53H31.8821V22.9592ZM13.0236 27.6729C11.7214 27.6729 10.6667 28.7276 10.6667 30.0298V39.4591H11.4606C12.7856 36.672 15.626 34.7454 18.9176 34.7454C22.2092 34.7454 25.0496 36.672 26.3746 39.4591H32.6779C34.0029 36.672 36.8433 34.7454 40.1349 34.7454C43.4265 34.7454 46.2669 36.672 47.5919 39.4591H48.3857V30.0298C48.3857 28.7276 47.3311 27.6729 46.0289 27.6729H13.0236ZM43.6683 42.9962C43.6683 44.9495 42.0843 46.5315 40.133 46.5315C38.1816 46.5315 36.5977 44.9476 36.5977 42.9962C36.5977 41.0449 38.1816 39.461 40.133 39.461C42.0843 39.461 43.6683 41.0449 43.6683 42.9962ZM18.9176 46.5315C20.8708 46.5315 22.4528 44.9476 22.4528 42.9962C22.4528 41.0449 20.8689 39.461 18.9176 39.461C16.9662 39.461 15.3823 41.0449 15.3823 42.9962C15.3823 44.9476 16.9662 46.5315 18.9176 46.5315Z" fill="#037B90"/>
<path d="M1.58582 30.5933H58.0682C58.944 30.5933 59.654 31.3034 59.654 32.1791C59.654 33.0548 58.944 33.7649 58.0682 33.7649H1.58582C0.710091 33.7649 0 33.0548 0 32.1791C0 31.3034 0.710091 30.5933 1.58582 30.5933Z" fill="#43E0FB"/>
</svg>
