<svg width="32" height="32" viewBox="0 0 32 32" fill="none" xmlns="http://www.w3.org/2000/svg">
<g clip-path="url(#clip0_14_2706)">
<path d="M31.3761 13.4519V10.9014H28.826L23.7261 18.5513L15.9724 21.8722C15.3287 22.1488 14.8008 22.9509 14.8008 23.6501V28.752H20.1347C20.6618 30.2349 22.0626 31.3001 23.7261 31.3001C25.3896 31.3001 26.7903 30.2349 27.317 28.752H31.3761V26.2014H27.317C26.7892 24.7185 25.3896 23.6502 23.7261 23.6502C22.0626 23.6502 20.663 24.7185 20.1351 26.2014H17.3509V24.0575L24.249 21.1019H31.3761V18.5514H26.7903L30.1911 13.4519H31.3761ZM23.7261 26.2014C24.431 26.2014 25.001 26.7721 25.001 27.4751C25.001 28.1813 24.431 28.752 23.7261 28.752C23.0211 28.752 22.4512 28.1813 22.4512 27.4751C22.4512 26.7721 23.0211 26.2014 23.7261 26.2014Z" fill="#04B6D5"/>
<path d="M9.70031 18.5513L7.55412 12.1108C7.33224 11.446 6.57642 10.9014 5.87529 10.9014H0.775391V13.4504L5.3126 13.4519L7.01323 18.5514L0.775391 18.5506V21.1018H9.70031V26.2014H8.19137C7.66618 24.7184 6.26392 23.6501 4.60041 23.6501C2.48746 23.6501 0.775391 25.3626 0.775391 27.4751C0.775391 29.5885 2.48746 31.3001 4.60041 31.3001C6.26392 31.3001 7.66349 30.2333 8.19137 28.752H12.2504V21.1019C12.2504 19.6935 11.1102 18.5513 9.70031 18.5513ZM4.60041 28.7504C3.89547 28.7504 3.32553 28.1804 3.32553 27.4751C3.32553 26.7706 3.89547 26.2006 4.60041 26.2006C5.30535 26.2006 5.87529 26.7706 5.87529 27.4751C5.87529 28.1804 5.30535 28.7504 4.60041 28.7504Z" fill="#04B6D5"/>
<path d="M18.6254 10.9003L19.9003 4.52473L14.8004 8.34975L7.15039 0.699707L9.70015 12.1748H12.3127L11.5396 8.69474L14.5614 11.7169L16.0903 10.5686L15.2013 15.0168L20.8428 12.7604L19.7623 15.9998H22.4505L25.0002 8.34975L18.6254 10.9003Z" fill="#04B6D5"/>
</g>
<defs>
<clipPath id="clip0_14_2706">
<rect width="30.6002" height="30.6002" fill="white" transform="translate(0.775391 0.699707)"/>
</clipPath>
</defs>
</svg>
