<svg width="30" height="30" viewBox="0 0 30 30" fill="none" xmlns="http://www.w3.org/2000/svg">
<g clip-path="url(#clip0_21_3041)">
<path d="M25.3803 26.681H28.6232V23.2038L24.6349 21.223L20.5609 17.3594H13.5209L8.82227 23.2038V26.681H10.9507" stroke="#04B6D5" stroke-width="1.67965" stroke-miterlimit="10"/>
<path d="M14.5791 26.6812H21.7514" stroke="#04B6D5" stroke-width="1.67965" stroke-miterlimit="10"/>
<path d="M10.6064 21.1968H24.3956" stroke="#04B6D5" stroke-width="1.67965" stroke-miterlimit="10"/>
<path d="M16.7949 17.3594V26.681" stroke="#04B6D5" stroke-width="1.67965" stroke-miterlimit="10"/>
<path d="M14.5798 26.6813C14.5798 27.6833 13.7675 28.5026 12.7655 28.5026C11.7634 28.5026 10.9512 27.6833 10.9512 26.6813C10.9512 25.6793 11.7634 24.874 12.7655 24.874C13.7675 24.874 14.5798 25.6793 14.5798 26.6813Z" stroke="#04B6D5" stroke-width="1.67965" stroke-miterlimit="10"/>
<path d="M25.3806 26.6813C25.3806 27.6833 24.5683 28.5026 23.5663 28.5026C22.5642 28.5026 21.752 27.6833 21.752 26.6813C21.752 25.6793 22.5642 24.874 23.5663 24.874C24.5683 24.874 25.3806 25.6793 25.3806 26.6813Z" stroke="#04B6D5" stroke-width="1.67965" stroke-miterlimit="10"/>
<path d="M8.82232 26.6809H1.61523V5.379C3.13106 3.86317 3.98091 3.01333 5.49667 1.49756H20.2032V17.3593" stroke="#04B6D5" stroke-width="1.67965" stroke-miterlimit="10"/>
<path d="M6.32603 1.66553V6.37632H1.61523" stroke="#04B6D5" stroke-width="1.67965" stroke-miterlimit="10"/>
<path d="M4.28711 22.0488H9.46216" stroke="#04B6D5" stroke-width="1.67965" stroke-miterlimit="10"/>
<path d="M4.28711 18.6895H12.4516" stroke="#04B6D5" stroke-width="1.67965" stroke-miterlimit="10"/>
<path d="M13.2459 8.32226V8.2703C13.2459 7.38238 12.5261 6.6626 11.6382 6.6626H10.7112C9.8233 6.6626 9.10352 7.38238 9.10352 8.2703V8.29309C9.10352 9.181 9.8233 9.90079 10.7112 9.90079H11.6382C12.5261 9.90079 13.2459 10.6206 13.2459 11.5085C13.2459 12.3964 12.5261 13.1162 11.6382 13.1162H10.7112C9.8233 13.1162 9.10352 12.3964 9.10352 11.5085V11.4404" stroke="#04B6D5" stroke-width="1.67965" stroke-miterlimit="10"/>
<path d="M11.1748 6.66285V4.44678" stroke="#04B6D5" stroke-width="1.67965" stroke-miterlimit="10"/>
<path d="M11.1748 15.3322V13.1162" stroke="#04B6D5" stroke-width="1.67965" stroke-miterlimit="10"/>
</g>
<defs>
<clipPath id="clip0_21_3041">
<rect width="28.6876" height="28.6876" fill="white" transform="translate(0.775391 0.65625)"/>
</clipPath>
</defs>
</svg>
