<svg width="32" height="32" viewBox="0 0 32 32" fill="none" xmlns="http://www.w3.org/2000/svg">
<g clip-path="url(#clip0_21_2958)">
<path d="M3.07207 22.202C2.14767 20.2677 1.64264 18.0965 1.67318 15.8076C1.77933 7.85344 8.31348 1.49136 16.2677 1.5975C20.5882 1.65517 24.439 3.6094 27.0387 6.65758" stroke="#04B6D5" stroke-width="1.79297" stroke-miterlimit="10"/>
<path d="M27.4626 3.26123L27.4116 7.08595L23.5869 7.03491" stroke="#04B6D5" stroke-width="1.79297" stroke-miterlimit="10"/>
<path d="M29.0789 9.79736C30.0033 11.7317 30.5083 13.9029 30.4778 16.1918C30.3717 24.146 23.8375 30.508 15.8833 30.4019C11.5628 30.3442 7.71194 28.39 5.1123 25.3418" stroke="#04B6D5" stroke-width="1.79297" stroke-miterlimit="10"/>
<path d="M4.68848 28.7383L4.73952 24.9136L8.56418 24.9646" stroke="#04B6D5" stroke-width="1.79297" stroke-miterlimit="10"/>
<path d="M13.7061 18.6953H18.4451" stroke="#04B6D5" stroke-width="1.79297" stroke-miterlimit="10"/>
<path d="M23.0141 18.6954H25.7642V16.7103C25.7642 15.4548 24.9656 14.3383 23.7775 13.9326L22.2627 13.4155L21.6471 11.0999C21.3053 9.814 20.1412 8.91895 18.8106 8.91895H13.2816C11.9511 8.91895 10.7869 9.814 10.4451 11.0999L9.8295 13.4155L8.35973 13.926C7.17912 14.336 6.3877 15.4487 6.3877 16.6986V18.6954H9.13782" stroke="#04B6D5" stroke-width="1.79297" stroke-miterlimit="10"/>
<path d="M11.4218 21.407C12.7021 21.407 13.74 20.3691 13.74 19.0888C13.74 17.8084 12.7021 16.7705 11.4218 16.7705C10.1414 16.7705 9.10352 17.8084 9.10352 19.0888C9.10352 20.3691 10.1414 21.407 11.4218 21.407Z" stroke="#04B6D5" stroke-width="1.79297" stroke-miterlimit="10"/>
<path d="M20.7294 21.407C22.0097 21.407 23.0477 20.3691 23.0477 19.0888C23.0477 17.8084 22.0097 16.7705 20.7294 16.7705C19.4491 16.7705 18.4111 17.8084 18.4111 19.0888C18.4111 20.3691 19.4491 21.407 20.7294 21.407Z" stroke="#04B6D5" stroke-width="1.79297" stroke-miterlimit="10"/>
<path d="M16.0752 9.16846V13.4155" stroke="#04B6D5" stroke-width="1.79297" stroke-miterlimit="10"/>
<path d="M9.8291 13.415H22.2623" stroke="#04B6D5" stroke-width="1.79297" stroke-miterlimit="10"/>
</g>
<defs>
<clipPath id="clip0_21_2958">
<rect width="30.6002" height="30.6002" fill="white" transform="translate(0.775391 0.699707)"/>
</clipPath>
</defs>
</svg>
