<svg width="59" height="59" viewBox="0 0 59 59" fill="none" xmlns="http://www.w3.org/2000/svg">
<g clip-path="url(#clip0_21_3070)">
<path d="M29.0537 0.415039C13.0334 0.415039 0 13.4485 0 29.4688C0 45.489 13.0334 58.5225 29.0537 58.5225C45.074 58.5225 58.1074 45.489 58.1074 29.4688C58.1074 13.4485 45.074 0.415039 29.0537 0.415039ZM53.7133 29.4688C53.7133 35.4778 51.5516 40.991 47.9666 45.274L43.1227 40.4304V39.2655C44.62 38.9014 45.7334 37.5552 45.7347 35.9457L45.7358 30.8251C45.7362 30.2928 45.6121 29.7673 45.3737 29.2913L44.0464 26.642H46.6748C46.9604 26.642 47.1922 26.4103 47.1922 26.1246V23.7448C47.1922 23.4592 46.9604 23.2275 46.6748 23.2275H43.8303C43.6137 23.2275 43.4202 23.3625 43.3452 23.5653L42.9886 24.5294L40.4506 18.5816C39.9121 17.3212 38.6738 16.5035 37.3035 16.5035H20.8048C20.3364 16.5035 19.8843 16.6011 19.4694 16.7774L13.2479 10.5567C17.5309 6.97121 23.0443 4.80934 29.0537 4.80934C42.651 4.80934 53.7133 15.8715 53.7133 29.4688ZM17.3185 33.9218C17.0621 33.9218 16.8543 33.7141 16.8543 33.458V31.3341C16.8543 31.0779 17.0621 30.8703 17.3185 30.8703H22.2381C22.4944 30.8703 22.7022 31.0779 22.7022 31.3341V33.458C22.7022 33.7141 22.4944 33.9218 22.2381 33.9218H17.3185ZM18.8671 25.2699L19.7287 23.2514L21.7472 25.2699H18.8671ZM41.2529 33.458C41.2529 33.7141 41.0453 33.9218 40.7892 33.9218H36.614L35.4056 32.7134V31.3343C35.4056 31.0781 35.6134 30.8705 35.8694 30.8705H40.7893C41.0455 30.8705 41.2531 31.0781 41.2531 31.3343V33.458H41.2529ZM27.9617 25.2699L22.2723 19.5805H36.8114L39.2402 25.2699H27.9617ZM4.39431 29.4688C4.39431 23.4597 6.55599 17.9465 10.1409 13.6637L16.8802 20.4029L15.1192 24.5295L14.7626 23.5653C14.6876 23.3623 14.4941 23.2275 14.2776 23.2275H11.4328C11.1472 23.2275 10.9155 23.4592 10.9155 23.7448V26.1246C10.9155 26.4103 11.1472 26.642 11.4328 26.642H14.0614L12.7341 29.2913C12.4958 29.7673 12.3717 30.2928 12.3718 30.8251L12.3731 35.9457C12.3743 37.555 13.4876 38.9014 14.9851 39.2655V41.3996C14.9851 41.9712 15.4481 42.434 16.0192 42.434H19.3296C19.9008 42.434 20.3642 41.9712 20.3642 41.3996V39.3659H35.8438L37.7432 41.2653V41.3996C37.7432 41.9712 38.2067 42.434 38.7782 42.434H38.9123L44.8595 48.381C40.5763 51.9665 35.0633 54.1284 29.0537 54.1284C15.4565 54.1284 4.39431 43.066 4.39431 29.4688Z" fill="white"/>
</g>
<defs>
<clipPath id="clip0_21_3070">
<rect width="58.1076" height="58.1076" fill="white" transform="translate(0 0.415039)"/>
</clipPath>
</defs>
</svg>
