<svg width="75" height="61" viewBox="0 0 75 61" fill="none" xmlns="http://www.w3.org/2000/svg">
<path d="M36.177 22.8282H31.3319C31.3319 19.1944 28.4248 16.2874 24.791 16.2874C21.1572 16.2874 18.2501 19.1944 18.2501 22.8282H13.405C13.405 16.5296 18.4923 11.4422 24.791 11.4422C31.0897 11.4422 36.177 16.5296 36.177 22.8282Z" fill="#FFAC00"/>
<path d="M72.9193 24.6856L70.7391 22.1822L65.6517 2.47872C65.4095 1.42891 64.4404 0.702148 63.3099 0.702148H12.5974C11.4669 0.702148 10.4978 1.42891 10.2556 2.47872L5.24888 21.8592L2.58402 24.4432C0.888286 26.1391 0 28.2387 0 30.5805V57.8749C0 59.2477 1.04981 60.2974 2.4225 60.2974H16.1504C17.5232 60.2974 18.5729 59.2476 18.5729 57.8749V51.6569H56.365V57.8749C56.365 59.2477 57.4148 60.2974 58.7875 60.2974H72.5153C73.8882 60.2974 74.9378 59.2476 74.9378 57.8749V30.2575C74.9383 28.1579 74.2115 26.3006 72.9193 24.6856ZM14.4546 5.5473H61.4525L65.3287 20.4058H10.6593L14.4546 5.5473ZM13.7279 55.4522H4.84515V51.6569H13.7279V55.4522ZM61.2103 55.4522V51.6569H70.093V55.4522H61.2103ZM70.0931 46.8117H4.84515V30.5805C4.84515 29.5307 5.24888 28.6424 5.97564 27.9157L8.72118 25.2508H66.9437L69.2048 27.9157C69.7701 28.5617 70.0931 29.3692 70.0931 30.2575V46.8117Z" fill="#075D7E"/>
<path d="M21.0763 44.7928H9.52879C8.15594 44.7928 7.10629 43.743 7.10629 42.3703V34.4566C7.10629 33.0837 8.15609 32.0341 9.52879 32.0341H21.0763C22.4492 32.0341 23.4988 33.0839 23.4988 34.4566V42.3703C23.499 43.743 22.4492 44.7928 21.0763 44.7928ZM11.9513 39.9476H18.6537V36.8791H11.9513V39.9476Z" fill="#FFAC00"/>
<path d="M65.4095 44.7928H53.8619C52.4891 44.7928 51.4394 43.743 51.4394 42.3703V34.4566C51.4394 33.0838 52.4892 32.0341 53.8619 32.0341H65.4095C66.7823 32.0341 67.832 33.0839 67.832 34.4566V42.3703C67.832 43.743 66.7822 44.7928 65.4095 44.7928ZM56.2844 39.9477H62.9868V36.8791H56.2844V39.9477Z" fill="#FFAC00"/>
</svg>
