<svg width="20" height="16" viewBox="0 0 20 16" fill="none" xmlns="http://www.w3.org/2000/svg">
<path d="M17.6562 0.96875H2.34375C1.05141 0.96875 0 2.02016 0 3.3125V12.6875C0 13.9798 1.05141 15.0312 2.34375 15.0312H17.6562C18.9486 15.0312 20 13.9798 20 12.6875V3.3125C20 2.02016 18.9486 0.96875 17.6562 0.96875ZM2.34375 2.53125H17.6562C18.087 2.53125 18.4375 2.88172 18.4375 3.3125V4.09375H1.5625V3.3125C1.5625 2.88172 1.91297 2.53125 2.34375 2.53125ZM17.6562 13.4688H2.34375C1.91297 13.4688 1.5625 13.1183 1.5625 12.6875V5.65625H18.4375V12.6875C18.4375 13.1183 18.087 13.4688 17.6562 13.4688Z" fill="white"/>
<path d="M6.875 10.3438H3.75C3.31852 10.3438 2.96875 10.6935 2.96875 11.125C2.96875 11.5565 3.31852 11.9062 3.75 11.9062H6.875C7.30648 11.9062 7.65625 11.5565 7.65625 11.125C7.65625 10.6935 7.30648 10.3438 6.875 10.3438Z" fill="white"/>
<path d="M10 11.9062C10.4315 11.9062 10.7812 11.5565 10.7812 11.125C10.7812 10.6935 10.4315 10.3438 10 10.3438C9.56853 10.3438 9.21875 10.6935 9.21875 11.125C9.21875 11.5565 9.56853 11.9062 10 11.9062Z" fill="white"/>
<path d="M13.125 11.9062C13.5565 11.9062 13.9062 11.5565 13.9062 11.125C13.9062 10.6935 13.5565 10.3438 13.125 10.3438C12.6935 10.3438 12.3438 10.6935 12.3438 11.125C12.3438 11.5565 12.6935 11.9062 13.125 11.9062Z" fill="white"/>
<path d="M16.25 11.9062C16.6815 11.9062 17.0312 11.5565 17.0312 11.125C17.0312 10.6935 16.6815 10.3438 16.25 10.3438C15.8185 10.3438 15.4688 10.6935 15.4688 11.125C15.4688 11.5565 15.8185 11.9062 16.25 11.9062Z" fill="white"/>
</svg>
