<svg width="32" height="38" viewBox="0 0 32 38" fill="none" xmlns="http://www.w3.org/2000/svg">
<path d="M29.7209 32.9355H2.28849C1.45068 32.9355 0.769531 33.6221 0.769531 34.4545V36.4816C0.769531 37.3194 1.45605 38.0004 2.28849 38.0004H29.7101C30.5479 38.0004 31.229 37.3139 31.229 36.4816V34.4545C31.2453 33.6113 30.5588 32.9355 29.7209 32.9355Z" fill="#04B6D5"/>
<path d="M14.9415 30.2162C15.2388 30.5136 15.628 30.6649 16.0118 30.6649C16.401 30.6649 16.7901 30.5136 17.082 30.2162L27.4712 19.827C28.0605 19.2379 28.0605 18.2757 27.4712 17.6757L26.0334 16.2378C25.4442 15.6486 24.482 15.6486 23.8821 16.2378L18.5415 21.5838V1.51895C18.5415 0.681081 17.855 0 17.0226 0H14.9955C14.1577 0 13.4766 0.67564 13.4766 1.51895V21.5892L8.13067 16.2432C7.54145 15.6541 6.57391 15.6541 5.97932 16.2432L4.54148 17.681C3.95232 18.2702 3.95232 19.2378 4.54148 19.8324L14.9415 30.2162Z" fill="#04B6D5"/>
</svg>
