<svg width="24" height="24" viewBox="0 0 24 24" fill="none" xmlns="http://www.w3.org/2000/svg">
<path d="M20.774 7.60962L15.3649 2.225C15.2931 2.15359 15.2078 2.09696 15.114 2.05836C15.0202 2.01975 14.9197 1.99992 14.8182 2H5.54545C5.13557 2 4.74248 2.16209 4.45265 2.45061C4.16282 2.73912 4 3.13044 4 3.53846V20.4615C4 20.8696 4.16282 21.2609 4.45265 21.5494C4.74248 21.8379 5.13557 22 5.54545 22H19.4545C19.8644 22 20.2575 21.8379 20.5473 21.5494C20.8372 21.2609 21 20.8696 21 20.4615V8.15385C21.0001 8.0528 20.9802 7.95273 20.9414 7.85935C20.9026 7.76597 20.8457 7.68111 20.774 7.60962ZM14.8182 8.15385V3.92308L19.0682 8.15385H14.8182Z" fill="white"/>
</svg>
