<svg width="28" height="27" viewBox="0 0 28 27" fill="none" xmlns="http://www.w3.org/2000/svg">
<g clip-path="url(#clip0_21_3033)">
<path d="M10.9802 22.1387H4.71895C2.56115 22.1387 0.805664 23.8942 0.805664 26.052C0.805664 26.4842 1.15609 26.8346 1.58831 26.8346H14.1108C14.543 26.8346 14.8935 26.4842 14.8935 26.052C14.8935 23.8942 13.138 22.1387 10.9802 22.1387ZM2.50504 25.2693C2.82802 24.3582 3.69847 23.704 4.7189 23.704H10.9802C12.0006 23.704 12.871 24.3583 13.194 25.2693H2.50504Z" fill="#04B6D5"/>
<path d="M27.4218 22.49C27.1116 21.1757 26.1216 20.0934 24.8382 19.6657L24.6062 19.5883C23.8725 19.2327 19.4749 15.291 15.4733 11.5507L17.0567 9.96724L18.5507 9.2212C20.4084 8.29349 20.8201 5.82924 19.3653 4.34804C19.3636 4.34637 19.362 4.34469 19.3603 4.34302L16.0397 1.02245C16.0381 1.02083 16.0364 1.01915 16.0348 1.01758L15.9941 0.977525C14.5333 -0.457396 12.1033 -0.0513781 11.1882 1.77999L10.4156 3.32599L3.951 9.7908L2.55111 10.5112C0.725025 11.4508 0.193656 13.9246 1.62225 15.3828L4.97253 18.7334C4.9856 18.7464 4.99868 18.7593 5.01185 18.7721C6.48024 20.199 8.95856 19.6578 9.88909 17.8211L10.5939 16.4301L12.0639 14.96C12.8899 15.8333 19.7038 22.9598 20.2228 23.9753L20.2993 24.2046C20.7272 25.4882 21.8097 26.4783 23.1245 26.7887C24.3425 27.0762 25.56 26.7299 26.4618 25.8282C27.3605 24.9294 27.7104 23.7127 27.4218 22.49ZM12.5884 2.47986C13.028 1.60005 14.1955 1.40498 14.8971 2.09428L18.2505 5.44712C18.9568 6.169 18.7568 7.36865 17.8513 7.82085L16.7479 8.37183L12.0112 3.635L12.5884 2.47986ZM8.49282 17.1136C8.03717 18.013 6.80881 18.3355 6.10283 17.6495L2.75763 14.3047L2.74021 14.2871C2.05457 13.5872 2.37498 12.3622 3.26735 11.903L4.26827 11.3879L8.99767 16.1173L8.49282 17.1136ZM9.95216 14.8581L5.52471 10.4307L11.059 4.89651L15.4864 9.32391L9.95216 14.8581ZM20.6074 21.9109C18.8088 19.7745 15.0139 15.8012 13.1712 13.8527L14.366 12.658C16.389 14.5473 20.3812 18.2333 22.5297 19.9886L20.6074 21.9109ZM25.355 24.7213C24.6612 25.4151 23.8851 25.3598 23.4842 25.2653C22.7053 25.0814 22.038 24.4707 21.7843 23.7096C21.6785 23.3922 21.669 23.3411 21.5656 23.1663L23.7996 20.9323C23.9811 21.0381 24.0378 21.0488 24.3433 21.1506C25.1043 21.4043 25.7147 22.0712 25.8985 22.8496C25.9931 23.2509 26.0485 24.0278 25.355 24.7213Z" fill="#04B6D5"/>
</g>
<defs>
<clipPath id="clip0_21_3033">
<rect width="26.7751" height="26.7751" fill="white" transform="translate(0.775391 0.112305)"/>
</clipPath>
</defs>
</svg>
