<svg width="22" height="30" viewBox="0 0 22 30" fill="none" xmlns="http://www.w3.org/2000/svg">
<path d="M18 3H16V2.5C16 1.83696 15.7366 1.20107 15.2678 0.732233C14.7989 0.263392 14.163 0 13.5 0H8.5C7.83696 0 7.20107 0.263392 6.73223 0.732233C6.26339 1.20107 6 1.83696 6 2.5V3H4C2.93913 3 1.92172 3.42143 1.17157 4.17157C0.421427 4.92172 0 5.93913 0 7V26C0 27.0609 0.421427 28.0783 1.17157 28.8284C1.92172 29.5786 2.93913 30 4 30H18C19.0609 30 20.0783 29.5786 20.8284 28.8284C21.5786 28.0783 22 27.0609 22 26V7C22 5.93913 21.5786 4.92172 20.8284 4.17157C20.0783 3.42143 19.0609 3 18 3ZM8 2.5C8.00156 2.36788 8.05474 2.2416 8.14817 2.14817C8.2416 2.05474 8.36788 2.00156 8.5 2H13.5C13.6321 2.00156 13.7584 2.05474 13.8518 2.14817C13.9453 2.2416 13.9984 2.36788 14 2.5V5.5C13.9984 5.63212 13.9453 5.7584 13.8518 5.85183C13.7584 5.94526 13.6321 5.99844 13.5 6H8.5C8.36788 5.99844 8.2416 5.94526 8.14817 5.85183C8.05474 5.7584 8.00156 5.63212 8 5.5V2.5ZM20 26C20 26.5304 19.7893 27.0391 19.4142 27.4142C19.0391 27.7893 18.5304 28 18 28H4C3.46957 28 2.96086 27.7893 2.58579 27.4142C2.21071 27.0391 2 26.5304 2 26V7C2 6.46957 2.21071 5.96086 2.58579 5.58579C2.96086 5.21071 3.46957 5 4 5H6V5.5C6 6.16304 6.26339 6.79893 6.73223 7.26777C7.20107 7.73661 7.83696 8 8.5 8H13.5C14.163 8 14.7989 7.73661 15.2678 7.26777C15.7366 6.79893 16 6.16304 16 5.5V5H18C18.5304 5 19.0391 5.21071 19.4142 5.58579C19.7893 5.96086 20 6.46957 20 7V26ZM18 23C18 23.2652 17.8946 23.5196 17.7071 23.7071C17.5196 23.8946 17.2652 24 17 24H11C10.7348 24 10.4804 23.8946 10.2929 23.7071C10.1054 23.5196 10 23.2652 10 23C10 22.7348 10.1054 22.4804 10.2929 22.2929C10.4804 22.1054 10.7348 22 11 22H17C17.2652 22 17.5196 22.1054 17.7071 22.2929C17.8946 22.4804 18 22.7348 18 23ZM18 17C18 17.2652 17.8946 17.5196 17.7071 17.7071C17.5196 17.8946 17.2652 18 17 18H11C10.7348 18 10.4804 17.8946 10.2929 17.7071C10.1054 17.5196 10 17.2652 10 17C10 16.7348 10.1054 16.4804 10.2929 16.2929C10.4804 16.1054 10.7348 16 11 16H17C17.2652 16 17.5196 16.1054 17.7071 16.2929C17.8946 16.4804 18 16.7348 18 17ZM6 11C6 10.7348 6.10536 10.4804 6.29289 10.2929C6.48043 10.1054 6.73478 10 7 10H15C15.2652 10 15.5196 10.1054 15.7071 10.2929C15.8946 10.4804 16 10.7348 16 11C16 11.2652 15.8946 11.5196 15.7071 11.7071C15.5196 11.8946 15.2652 12 15 12H7C6.73478 12 6.48043 11.8946 6.29289 11.7071C6.10536 11.5196 6 11.2652 6 11ZM8.707 15.293C8.89447 15.4805 8.99979 15.7348 8.99979 16C8.99979 16.2652 8.89447 16.5195 8.707 16.707L6.707 18.707C6.51947 18.8945 6.26516 18.9998 6 18.9998C5.73484 18.9998 5.48053 18.8945 5.293 18.707L4.293 17.707C4.11084 17.5184 4.01005 17.2658 4.01233 17.0036C4.0146 16.7414 4.11977 16.4906 4.30518 16.3052C4.49059 16.1198 4.7414 16.0146 5.0036 16.0123C5.2658 16.01 5.5184 16.1108 5.707 16.293L6 16.586L7.293 15.293C7.48053 15.1055 7.73484 15.0002 8 15.0002C8.26516 15.0002 8.51947 15.1055 8.707 15.293ZM8.707 21.293C8.89447 21.4805 8.99979 21.7348 8.99979 22C8.99979 22.2652 8.89447 22.5195 8.707 22.707L6.707 24.707C6.51947 24.8945 6.26516 24.9998 6 24.9998C5.73484 24.9998 5.48053 24.8945 5.293 24.707L4.293 23.707C4.11084 23.5184 4.01005 23.2658 4.01233 23.0036C4.0146 22.7414 4.11977 22.4906 4.30518 22.3052C4.49059 22.1198 4.7414 22.0146 5.0036 22.0123C5.2658 22.01 5.5184 22.1108 5.707 22.293L6 22.586L7.293 21.293C7.48053 21.1055 7.73484 21.0002 8 21.0002C8.26516 21.0002 8.51947 21.1055 8.707 21.293Z" fill="#04D9C3"/>
</svg>
