<svg width="21" height="22" viewBox="0 0 21 22" fill="none" xmlns="http://www.w3.org/2000/svg">
<path d="M4.68568 5.31896H4.36375L8.17005 1.51266C9.41041 0.277031 11.4177 0.277031 12.6581 1.51266L16.4644 5.31896H16.1424C15.385 5.31896 14.6701 5.61248 14.1351 6.15218L10.9159 9.35723C10.6366 9.63655 10.1916 9.63655 9.91224 9.35723L6.69298 6.15218C6.15801 5.61248 5.44315 5.31896 4.68568 5.31896Z" fill="white"/>
<path d="M16.1424 16.681H16.4644L12.6581 20.4873C11.4177 21.723 9.41041 21.723 8.17005 20.4873L4.36375 16.681H4.68568C5.44315 16.681 6.15801 16.3875 6.69298 15.8478L9.91224 12.6428C10.1916 12.3634 10.6366 12.3634 10.9159 12.6428L14.1351 15.8478C14.6701 16.3875 15.385 16.681 16.1424 16.681Z" fill="white"/>
<path d="M19.9014 13.244L17.4112 15.7342H16.1424C15.6359 15.7342 15.1625 15.5354 14.8027 15.1803L11.5834 11.9705C10.9396 11.3267 9.88857 11.3267 9.24471 11.9705L6.02546 15.1803C5.66566 15.5354 5.19224 15.7342 4.68568 15.7342H3.41691L0.92672 13.244C-0.308907 12.0036 -0.308907 9.99635 0.92672 8.75599L3.41691 6.2658H4.68568C5.19224 6.2658 5.66566 6.46463 6.02546 6.8197L9.24471 10.0295C9.56664 10.3514 9.99272 10.5124 10.4141 10.5124C10.8354 10.5124 11.2615 10.3514 11.5834 10.0295L14.8027 6.8197C15.1625 6.46463 15.6359 6.2658 16.1424 6.2658H17.4112L19.9014 8.75599C21.137 9.99635 21.137 12.0036 19.9014 13.244Z" fill="white"/>
</svg>
