<svg width="36" height="24" viewBox="0 0 36 24" fill="none" xmlns="http://www.w3.org/2000/svg">
<g clip-path="url(#clip0_84_964)">
<path d="M32.8359 0.742188H3.16406C1.4194 0.742188 0 2.16159 0 3.90625V20.7812C0 22.5259 1.4194 23.9453 3.16406 23.9453H32.8359C34.5806 23.9453 36 22.5259 36 20.7812V3.90625C36 2.16159 34.5806 0.742188 32.8359 0.742188ZM33.8906 20.7812C33.8906 21.3628 33.4175 21.8359 32.8359 21.8359H3.16406C2.58251 21.8359 2.10938 21.3628 2.10938 20.7812V3.90625C2.10938 3.3247 2.58251 2.85156 3.16406 2.85156H32.8359C33.4175 2.85156 33.8906 3.3247 33.8906 3.90625V20.7812Z" fill="#04B6D5"/>
<path d="M30.6562 4.96094H22.2188C21.6363 4.96094 21.1641 5.43316 21.1641 6.01562C21.1641 6.59809 21.6363 7.07031 22.2188 7.07031H30.6562C31.2387 7.07031 31.7109 6.59809 31.7109 6.01562C31.7109 5.43316 31.2387 4.96094 30.6562 4.96094Z" fill="#04B6D5"/>
<path d="M30.6562 9.17969H22.2188C21.6363 9.17969 21.1641 9.65191 21.1641 10.2344C21.1641 10.8168 21.6363 11.2891 22.2188 11.2891H30.6562C31.2387 11.2891 31.7109 10.8168 31.7109 10.2344C31.7109 9.65191 31.2387 9.17969 30.6562 9.17969Z" fill="#04B6D5"/>
<path d="M30.6562 13.3984H22.2188C21.6363 13.3984 21.1641 13.8707 21.1641 14.4531C21.1641 15.0356 21.6363 15.5078 22.2188 15.5078H30.6562C31.2387 15.5078 31.7109 15.0356 31.7109 14.4531C31.7109 13.8707 31.2387 13.3984 30.6562 13.3984Z" fill="#04B6D5"/>
<path d="M26.4375 17.6172H22.2188C21.6363 17.6172 21.1641 18.0894 21.1641 18.6719C21.1641 19.2543 21.6363 19.7266 22.2188 19.7266H26.4375C27.02 19.7266 27.4922 19.2543 27.4922 18.6719C27.4922 18.0894 27.02 17.6172 26.4375 17.6172Z" fill="#04B6D5"/>
<path d="M14.7726 12.0367C15.4661 11.2846 15.8907 10.281 15.8907 9.17969C15.8907 6.85347 13.9982 4.96094 11.672 4.96094C9.34577 4.96094 7.45324 6.85347 7.45324 9.17969C7.45324 10.281 7.87786 11.2846 8.57142 12.0367C6.08173 13.206 4.35352 15.7372 4.35352 18.6649C4.35352 19.2474 4.82573 19.7196 5.4082 19.7196H17.9359C18.5184 19.7196 18.9906 19.2474 18.9906 18.6649C18.9905 15.7372 17.2623 13.206 14.7726 12.0367ZM11.672 7.07031C12.8351 7.07031 13.7814 8.01658 13.7814 9.17969C13.7814 10.3428 12.8351 11.2891 11.672 11.2891C10.5089 11.2891 9.56262 10.3428 9.56262 9.17969C9.56262 8.01658 10.5089 7.07031 11.672 7.07031ZM6.57012 17.6102C7.059 15.2416 9.16078 13.4557 11.672 13.4557C14.1832 13.4557 16.285 15.2416 16.7739 17.6102H6.57012Z" fill="#04B6D5"/>
</g>
<defs>
<clipPath id="clip0_84_964">
<rect width="36" height="24" fill="white"/>
</clipPath>
</defs>
</svg>
