<svg width="134" height="168" viewBox="0 0 134 168" fill="none" xmlns="http://www.w3.org/2000/svg">
<g style="mix-blend-mode:plus-lighter">
<path d="M129.964 92H3.6106C1.77509 92 0.287109 94.0147 0.287109 96.5C0.287109 98.9853 1.77509 101 3.6106 101H129.964C131.799 101 133.287 98.9853 133.287 96.5C133.287 94.0147 131.799 92 129.964 92Z" fill="#43E0FB"/>
</g>
<path d="M7.62846 34.6622C7.62846 33.9282 8.2251 33.3323 8.96006 33.3323H29.2871V26H8.96006C4.17869 26 0.287109 29.8868 0.287109 34.6622V49.3247H7.62846V34.6622Z" fill="#43E0FB"/>
<path d="M124.955 34.6622V49.3247H132.287V34.6622C132.287 29.8868 128.4 26 123.625 26H103.323V33.3323H123.625C124.359 33.3323 124.955 33.9282 124.955 34.6622Z" fill="#43E0FB"/>
<path d="M7.62846 158.987V144.325H0.287109V158.987C0.287109 163.763 4.17869 167.649 8.96006 167.649H29.2871V160.317H8.96006C8.2251 160.317 7.62846 159.721 7.62846 158.987Z" fill="#43E0FB"/>
<path d="M124.955 158.987C124.955 159.721 124.359 160.317 123.625 160.317H103.323V167.649H123.625C128.4 167.649 132.287 163.763 132.287 158.987V144.325H124.955V158.987Z" fill="#43E0FB"/>
</svg>
