<svg width="32" height="30" viewBox="0 0 32 30" fill="none" xmlns="http://www.w3.org/2000/svg">
<path d="M14.8594 28.2143H3.55087C2.95337 28.2137 2.3805 27.9761 1.958 27.5536C1.5355 27.1311 1.29789 26.5582 1.29732 25.9607V24.9039C1.29789 24.3064 1.5355 23.7335 1.958 23.311C2.3805 22.8885 2.95337 22.6509 3.55087 22.6504H14.8594C15.136 22.6504 15.4014 22.7603 15.597 22.9559C15.7927 23.1516 15.9026 23.4169 15.9026 23.6936C15.9026 23.9703 15.7927 24.2356 15.597 24.4313C15.4014 24.6269 15.136 24.7368 14.8594 24.7368H3.55087C3.52892 24.7368 3.50718 24.7411 3.4869 24.7495C3.46662 24.7579 3.44819 24.7702 3.43267 24.7857C3.41715 24.8012 3.40485 24.8197 3.39646 24.8399C3.38807 24.8602 3.38376 24.882 3.38378 24.9039V25.9607C3.38376 25.9827 3.38807 26.0044 3.39646 26.0247C3.40485 26.045 3.41715 26.0634 3.43267 26.0789C3.44819 26.0944 3.46662 26.1067 3.4869 26.1151C3.50718 26.1235 3.52892 26.1278 3.55087 26.1278H14.8594C15.136 26.1278 15.4014 26.2377 15.597 26.4334C15.7927 26.629 15.9026 26.8944 15.9026 27.171C15.9026 27.4477 15.7927 27.7131 15.597 27.9087C15.4014 28.1044 15.136 28.2143 14.8594 28.2143Z" fill="#04B6D5"/>
<path d="M19.6911 13.2599C19.3609 13.2601 19.039 13.156 18.7715 12.9624L16.2503 11.1354L13.7305 12.9618C13.4638 13.1551 13.143 13.2595 12.8136 13.2603C12.4842 13.261 12.1629 13.158 11.8954 12.9658C11.6314 12.7814 11.4333 12.5174 11.33 12.2125C11.2266 11.9075 11.2234 11.5775 11.3208 11.2706L12.3015 8.11444L10.1838 6.47821C9.92868 6.2852 9.74129 6.0163 9.64855 5.71013C9.55581 5.40395 9.56249 5.07626 9.66764 4.77412C9.77367 4.46756 9.97287 4.2018 10.2374 4.01402C10.5019 3.82624 10.8185 3.72582 11.1428 3.72681H13.6015L14.8254 0.967267C14.9491 0.693037 15.1494 0.460334 15.4021 0.297078C15.6548 0.133822 15.9493 0.046947 16.2501 0.046875C16.551 0.0468031 16.8455 0.133538 17.0982 0.296673C17.351 0.459808 17.5514 0.692414 17.6753 0.966585L18.8992 3.72681H21.3578C21.6822 3.72582 21.9988 3.82624 22.2633 4.01402C22.5278 4.2018 22.727 4.46756 22.833 4.77412C22.9382 5.07648 22.9448 5.40441 22.8518 5.71074C22.7588 6.01706 22.571 6.286 22.3155 6.47885L20.1991 8.11436L21.1785 11.2678C21.2767 11.575 21.274 11.9055 21.1709 12.211C21.0678 12.5165 20.8696 12.781 20.6053 12.9658C20.3388 13.1569 20.0191 13.2597 19.6911 13.2599ZM12.7362 5.81325L13.88 6.69755C14.1273 6.88882 14.3104 7.15098 14.4048 7.44904C14.4992 7.74709 14.5005 8.06686 14.4084 8.36564L13.7957 10.3374L15.3293 9.22558C15.597 9.03178 15.9191 8.92738 16.2495 8.92726C16.58 8.92713 16.9021 9.03129 17.1699 9.2249L18.7049 10.3374L18.0923 8.36223C18.0004 8.06339 18.0021 7.74363 18.097 7.44575C18.1919 7.14788 18.3756 6.88611 18.6234 6.69551L19.7645 5.81324H18.5596C18.2579 5.81426 17.9625 5.72755 17.7093 5.56367C17.456 5.39979 17.2559 5.1658 17.1333 4.89021L16.2503 2.90024L15.366 4.89298C15.2432 5.16796 15.0432 5.40133 14.7902 5.56471C14.5372 5.7281 14.2422 5.81445 13.9411 5.81328L12.7362 5.81325Z" fill="#04B6D5"/>
<path d="M8.15848 18.7994C7.86363 18.7995 7.57635 18.706 7.33801 18.5324L5.818 17.4322L4.29933 18.5324C4.06103 18.7051 3.77439 18.7984 3.48009 18.799C3.1858 18.7996 2.89878 18.7075 2.65977 18.5358C2.42501 18.368 2.24898 18.1306 2.15659 17.8572C2.0642 17.5838 2.06013 17.2882 2.14495 17.0124L2.74393 15.0869L1.48607 14.1143C1.25897 13.9395 1.09222 13.6981 1.00916 13.4238C0.926101 13.1496 0.930898 12.8562 1.02288 12.5848C1.11747 12.31 1.29564 12.0717 1.53242 11.9033C1.76921 11.7349 2.05275 11.6447 2.34333 11.6455H3.79816L4.54386 9.96584C4.65418 9.72023 4.83314 9.51174 5.05919 9.36546C5.28524 9.21919 5.54875 9.14137 5.818 9.14137C6.08724 9.14137 6.35075 9.21919 6.5768 9.36546C6.80286 9.51174 6.98181 9.72023 7.09213 9.96584L7.83788 11.6455H9.2927C9.58326 11.6447 9.86678 11.7349 10.1035 11.9033C10.3403 12.0718 10.5185 12.31 10.613 12.5848C10.7051 12.8564 10.7097 13.15 10.6264 13.4245C10.5431 13.6989 10.376 13.9404 10.1485 14.115L8.89206 15.0869L9.48975 17.0111C9.57525 17.2869 9.57165 17.5827 9.47947 17.8565C9.38728 18.1302 9.2112 18.3679 8.97622 18.5358C8.73806 18.7073 8.45197 18.7995 8.15848 18.7994ZM4.39306 13.7245L4.40935 13.7367C4.63062 13.9081 4.79457 14.1427 4.87948 14.4095C4.96439 14.6762 4.96624 14.9624 4.88479 15.2302L4.7639 15.6194L4.99619 15.4503C5.23503 15.2766 5.52279 15.1831 5.81812 15.1832C6.11345 15.1833 6.40113 15.277 6.63983 15.4509L6.87212 15.6194L6.75259 15.2316C6.67046 14.9632 6.67209 14.6761 6.75728 14.4087C6.84246 14.1412 7.00715 13.9061 7.22938 13.7346L7.24295 13.7245C6.99869 13.6995 6.76542 13.6102 6.56689 13.4657C6.36836 13.3212 6.21168 13.1267 6.11279 12.902L5.818 12.2377L5.52051 12.9074C5.42149 13.131 5.265 13.3244 5.06696 13.468C4.86892 13.6115 4.63641 13.7 4.39306 13.7245Z" fill="#04B6D5"/>
<path d="M29.0231 18.3287C28.7283 18.3288 28.441 18.2354 28.2027 18.0618L26.6827 16.9615L25.164 18.0617C24.9258 18.2346 24.6391 18.328 24.3448 18.3286C24.0504 18.3292 23.7634 18.237 23.5244 18.0651C23.2897 17.8973 23.1136 17.6599 23.0213 17.3865C22.9289 17.1131 22.9248 16.8176 23.0096 16.5417L23.6086 14.6162L22.3507 13.6436C22.1236 13.4689 21.9569 13.2274 21.8738 12.9532C21.7908 12.6789 21.7956 12.3855 21.8875 12.1141C21.9821 11.8393 22.1603 11.6011 22.3971 11.4326C22.6339 11.2642 22.9174 11.174 23.208 11.1748H24.6628L25.4085 9.49516C25.5188 9.24955 25.6978 9.04106 25.9239 8.89479C26.1499 8.74851 26.4134 8.67069 26.6827 8.67069C26.9519 8.67069 27.2154 8.74851 27.4415 8.89479C27.6675 9.04106 27.8465 9.24955 27.9568 9.49516L28.7026 11.1748H30.1574C30.448 11.1741 30.7315 11.2642 30.9682 11.4327C31.205 11.6011 31.3832 11.8394 31.4777 12.1141C31.5697 12.3857 31.5744 12.6794 31.4911 12.9538C31.4078 13.2282 31.2407 13.4697 31.0131 13.6443L29.7567 14.6162L30.3543 16.5404C30.4398 16.8162 30.4363 17.112 30.3441 17.3858C30.2519 17.6595 30.0758 17.8972 29.8409 18.0652C29.6027 18.2367 29.3166 18.3289 29.0231 18.3287ZM25.2578 13.2538L25.2741 13.266C25.4953 13.4374 25.6593 13.6721 25.7442 13.9388C25.8291 14.2055 25.8309 14.4917 25.7495 14.7595L25.6286 15.1487L25.8609 14.9796C26.0997 14.8059 26.3875 14.7124 26.6828 14.7125C26.9782 14.7126 27.2658 14.8064 27.5045 14.9803L27.7368 15.1487L27.6173 14.7609C27.5352 14.4925 27.5368 14.2055 27.622 13.938C27.7072 13.6706 27.8719 13.4354 28.0941 13.264L28.1077 13.2538C27.8634 13.2288 27.6301 13.1395 27.4316 12.995C27.2331 12.8505 27.0764 12.656 26.9775 12.4313L26.6827 11.767L26.3852 12.4367C26.2862 12.6604 26.1297 12.8538 25.9316 12.9973C25.7336 13.1408 25.5011 13.2293 25.2578 13.2538Z" fill="#04B6D5"/>
<path d="M28.89 28.2143H24.4753C23.862 28.2136 23.274 27.9696 22.8403 27.5359C22.4066 27.1023 22.1627 26.5143 22.162 25.9009V24.9637C22.1627 24.3504 22.4066 23.7624 22.8403 23.3287C23.274 22.895 23.862 22.6511 24.4753 22.6504H28.89C29.5033 22.6511 30.0913 22.895 30.525 23.3287C30.9587 23.7624 31.2026 24.3504 31.2033 24.9637V25.9009C31.2026 26.5143 30.9587 27.1023 30.525 27.5359C30.0913 27.9696 29.5033 28.2136 28.89 28.2143ZM24.4753 24.7368C24.4152 24.7369 24.3575 24.7609 24.315 24.8034C24.2725 24.8459 24.2486 24.9035 24.2485 24.9637V25.9009C24.2486 25.9611 24.2725 26.0187 24.315 26.0612C24.3575 26.1038 24.4152 26.1277 24.4753 26.1278H28.89C28.9502 26.1277 29.0078 26.1038 29.0503 26.0612C29.0928 26.0187 29.1168 25.9611 29.1169 25.9009V24.9637C29.1168 24.9035 29.0928 24.8459 29.0503 24.8034C29.0078 24.7609 28.9502 24.7369 28.89 24.7368H24.4753Z" fill="#04B6D5"/>
<path d="M18.3368 29.953H15.5548C15.0938 29.9526 14.6518 29.7692 14.3258 29.4433C13.9999 29.1173 13.8165 28.6753 13.8161 28.2143V22.6504C13.8165 22.1894 13.9999 21.7473 14.3258 21.4214C14.6518 21.0954 15.0938 20.9121 15.5548 20.9116H18.3368C18.7978 20.9121 19.2398 21.0954 19.5658 21.4214C19.8918 21.7473 20.0751 22.1894 20.0755 22.6504V28.2143C20.0751 28.6753 19.8918 29.1173 19.5658 29.4433C19.2398 29.7692 18.7978 29.9526 18.3368 29.953ZM15.9026 27.8665H17.989V22.9981H15.9026V27.8665Z" fill="#04B6D5"/>
</svg>
