<svg width="30" height="30" viewBox="0 0 30 30" fill="none" xmlns="http://www.w3.org/2000/svg">
<g clip-path="url(#clip0_21_2984)">
<path d="M11.6277 4.99302L10.503 4.58887V9.14101H9.04892V4.58887L7.92422 4.99302C5.7569 5.77184 4.30078 7.8429 4.30078 10.1466C4.30078 12.251 5.51452 14.1596 7.37563 15.0685V18.6064L12.1762 18.5911V15.0685C14.0373 14.1596 15.2511 12.251 15.2511 10.1466C15.2511 7.84295 13.795 5.7719 11.6277 4.99302ZM11.053 13.7206L10.4954 13.9198V16.9155L9.0566 16.9201V13.9198L8.49898 13.7206C6.99333 13.1825 5.98175 11.7463 5.98175 10.1466C5.98175 8.99276 6.50878 7.92308 7.36806 7.21485V10.8219H12.1839V7.21485C13.0432 7.92308 13.5703 8.9927 13.5703 10.1466C13.5702 11.7462 12.5586 13.1825 11.053 13.7206Z" fill="#04B6D5"/>
<path d="M4.5625 23.7085H11.7187V25.3894H4.5625V23.7085Z" fill="#04B6D5"/>
<path d="M4.5625 20.3467H11.7187V22.0276H4.5625V20.3467Z" fill="#04B6D5"/>
<path d="M16.7939 13.6226H18.9485V15.3035H16.7939V13.6226Z" fill="#04B6D5"/>
<path d="M16.7939 10.2607H18.9485V11.9417H16.7939V10.2607Z" fill="#04B6D5"/>
<path d="M29.4134 13.4526L28.0427 12.0819L29.3961 10.7285L28.2075 9.53989L26.8541 10.8933L25.4772 9.51636L22.678 12.3142V5.69978L17.6344 0.65625H0.825195V29.3439H22.678V20.1915L25.3012 17.5669V20.1103L24.1652 21.2464L25.3538 22.435L26.9822 20.8066V15.8851L29.4134 13.4526ZM27.0366 13.4529L18.8159 21.6777L17.2522 20.1139L25.477 11.8933L27.0366 13.4529ZM16.0633 21.3022L17.6276 22.8665L16.8567 23.6379H15.2919V22.0731L16.0633 21.3022ZM20.3001 5.69911L17.6354 5.69878L17.635 3.03402L20.3001 5.69911ZM20.997 27.663H2.50611V2.33717H15.9541L15.9547 7.37952L20.997 7.38014V13.9943L13.611 21.3766V25.3188H17.5532L20.997 21.8732V27.663Z" fill="#04B6D5"/>
</g>
<defs>
<clipPath id="clip0_21_2984">
<rect width="28.6876" height="28.6876" fill="white" transform="translate(0.775391 0.65625)"/>
</clipPath>
</defs>
</svg>
